<svg width="76" height="64" viewBox="0 0 76 64" fill="none" xmlns="http://www.w3.org/2000/svg">
<circle cx="23.5" cy="23.5" r="23.5" fill="#F4EDE6"/>
<path d="M45.2902 49.5774C45.2535 50.1594 44.7948 50.618 44.2402 50.618H36.6082C36.0535 50.618 35.5949 50.1594 35.5582 49.5774L33.4495 15.8094H47.3995L45.2902 49.5774ZM43.0129 56.2907H37.8355C37.2402 56.2907 36.7535 55.782 36.7535 55.15V51.9H44.0902V55.15C44.0948 55.782 43.6082 56.2907 43.0129 56.2907ZM33.4082 12.1094H47.4402V14.5274H33.4082V12.1094ZM48.7175 11.4727C48.7175 11.118 48.4308 10.832 48.0808 10.832H32.7675C32.4129 10.832 32.1309 11.118 32.1309 11.4727V15.168C32.1309 15.1727 32.1355 15.182 32.1355 15.1867C32.1355 15.1954 32.1309 15.2 32.1309 15.2094L34.2809 49.6547C34.3309 50.4907 34.8082 51.2 35.4769 51.5867V55.15C35.4769 56.4867 36.5309 57.5727 37.8355 57.5727H43.0129C44.3128 57.5727 45.3722 56.4867 45.3722 55.15V51.5867C46.0448 51.2 46.5128 50.4907 46.5675 49.6547L48.7175 15.2094C48.7175 15.2 48.7175 15.1954 48.7175 15.1867C48.7175 15.182 48.7175 15.1727 48.7175 15.168V11.4727Z" fill="#A5836A"/>
<path d="M29.0267 56.3227H19.74V36.0367H23.7447V49.0634C23.7447 49.4181 24.0267 49.7047 24.3807 49.7047C24.7353 49.7047 25.022 49.4181 25.022 49.0634V36.0367H29.0267V56.3227ZM21.5447 25.0181C21.5447 24.6047 21.8807 24.2681 22.29 24.2681H26.472C26.8807 24.2681 27.2173 24.6047 27.2173 25.0181V34.7594H21.5447V25.0181ZM26.472 22.9907H22.29C21.1767 22.9907 20.2673 23.9001 20.2673 25.0181V34.7594H19.0993C18.7447 34.7594 18.458 35.0454 18.458 35.4001V56.9634C18.458 57.3134 18.7447 57.6001 19.0993 57.6001H29.6673C30.0173 57.6001 30.3033 57.3134 30.3033 56.9634V35.4001C30.3033 35.0454 30.0173 34.7594 29.6673 34.7594H28.4947V25.0181C28.4947 23.9001 27.5853 22.9907 26.472 22.9907Z" fill="#A5836A"/>
<path d="M60.4082 48.3907C57.4856 48.3907 55.1129 44.6867 55.1129 40.132C55.1129 35.5774 57.4856 31.868 60.4082 31.868C63.3269 31.868 65.7036 35.5774 65.7036 40.132C65.7036 44.6867 63.3269 48.3907 60.4082 48.3907ZM60.4082 30.718C56.8536 30.718 53.9629 34.9407 53.9629 40.132C53.9629 45.3227 56.8536 49.5454 60.4082 49.5454C63.9629 49.5454 66.8582 45.3227 66.8582 40.132C66.8582 34.9407 63.9629 30.718 60.4082 30.718Z" fill="#A5836A"/>
<path d="M64.9351 18.3452V22.3546H55.8805V18.3452C55.8805 17.5092 56.5625 16.8319 57.3945 16.8319H63.4218C64.2531 16.8319 64.9351 17.5092 64.9351 18.3452ZM68.4031 26.2046V54.9452C68.4031 55.7406 67.7578 56.3866 66.9671 56.3866H53.8491C53.0531 56.3866 52.4078 55.7406 52.4078 54.9452V26.2046C52.4078 24.7132 53.6218 23.5046 55.1078 23.5046H65.7031C67.1945 23.5046 68.4031 24.7132 68.4031 26.2046ZM59.1265 7.5499H61.7398C62.6125 7.5499 63.3171 8.21324 63.3171 9.0319V15.6819H57.5445V9.0319C57.5445 8.21324 58.2531 7.5499 59.1265 7.5499ZM61.7398 6.3999H59.1265C57.6171 6.3999 56.3898 7.5819 56.3898 9.0319V15.8819C55.4218 16.2772 54.7305 17.2272 54.7305 18.3406V22.3679C52.7851 22.5592 51.2578 24.2046 51.2578 26.2046V54.9452C51.2578 56.3772 52.4171 57.5366 53.8491 57.5366H66.9671C68.3945 57.5366 69.5578 56.3772 69.5578 54.9452V26.2046C69.5578 24.2046 68.0305 22.5632 66.0851 22.3679V18.3452C66.0851 17.2499 65.4171 16.3046 64.4718 15.8952V9.0319C64.4718 7.5819 63.2445 6.3999 61.7398 6.3999Z" fill="#A5836A"/>
</svg>
