<svg width="76" height="64" viewBox="0 0 76 64" fill="none" xmlns="http://www.w3.org/2000/svg">
<circle cx="23.5" cy="23.5" r="23.5" fill="#F4EDE6"/>
<path d="M68.2093 42.1046C68.142 48.8452 62.6293 54.2539 55.8887 54.1906C49.2433 54.1226 43.8667 48.7506 43.8034 42.1046V41.4726H68.2093V42.1046ZM46.5434 53.0259C46.3767 53.7659 45.722 54.2946 44.9587 54.2986H26.02C25.2614 54.2946 24.6067 53.7659 24.44 53.0259L20.3407 34.2492C19.83 31.9332 20.2367 29.5132 21.4734 27.4906H49.51C50.7107 29.4592 51.1307 31.8066 50.6833 34.0686L50.0107 34.0279H49.97C48.178 34.0232 46.458 34.7366 45.198 36.0052C45.126 36.0772 45.054 36.1546 44.9813 36.2352L44.914 36.3126C44.864 36.3666 44.8187 36.4206 44.774 36.4746L44.6974 36.5652C44.6567 36.6192 44.616 36.6692 44.584 36.7186L44.5074 36.8226C44.4714 36.8719 44.4354 36.9219 44.3947 36.9759L44.3227 37.0799C44.286 37.1339 44.2547 37.1879 44.2187 37.2466C44.196 37.2786 44.178 37.3099 44.1554 37.3419C44.1194 37.4046 44.0834 37.4679 44.0467 37.5359L44.006 37.6126C43.9567 37.7026 43.9114 37.7932 43.8667 37.8879L43.844 37.9379C43.808 38.0146 43.776 38.0912 43.74 38.1726C43.7267 38.2039 43.7127 38.2352 43.6994 38.2719C43.6767 38.3306 43.6494 38.3939 43.6314 38.4566C43.6133 38.4932 43.6 38.5332 43.5867 38.5739C43.5687 38.6326 43.5507 38.6872 43.528 38.7546C43.5187 38.7906 43.5054 38.8312 43.4914 38.8679C43.4734 38.9306 43.46 38.9852 43.442 39.0526C43.4327 39.0886 43.4194 39.1292 43.4147 39.1659C43.3967 39.2286 43.3834 39.2966 43.37 39.3599C43.3607 39.3959 43.352 39.4319 43.3474 39.4726C43.3294 39.5492 43.32 39.6259 43.3067 39.7026C43.3067 39.7252 43.2973 39.7526 43.2934 39.7752C43.2794 39.8746 43.266 39.9739 43.2567 40.0732H43.108C42.7194 40.0732 42.4127 40.3846 42.4127 40.7686V42.1046C42.4127 42.2219 42.4127 42.3439 42.4174 42.4659C42.4174 42.5066 42.4174 42.5472 42.4174 42.5879C42.4174 42.6646 42.4174 42.7459 42.426 42.8226C42.426 42.8719 42.4307 42.9219 42.4354 42.9672C42.4354 43.0392 42.444 43.1112 42.4487 43.1839C42.4487 43.2332 42.458 43.2832 42.462 43.3372C42.4667 43.3912 42.476 43.4726 42.4807 43.5406C42.4894 43.6079 42.494 43.6439 42.5027 43.6986C42.5074 43.7526 42.5167 43.8292 42.5254 43.8926C42.5347 43.9599 42.5394 44.0006 42.548 44.0552L42.5754 44.2446C42.584 44.3032 42.5934 44.3572 42.6067 44.4119C42.616 44.4659 42.6247 44.5379 42.6387 44.5966C42.6474 44.6599 42.6607 44.7052 42.67 44.7639C42.6834 44.8179 42.6927 44.8766 42.706 44.9446C42.7194 45.0119 42.7334 45.0572 42.7467 45.1112L42.7874 45.2919L42.828 45.4592C42.8414 45.5179 42.8594 45.5719 42.8734 45.6352C42.8914 45.6986 42.9047 45.7526 42.918 45.8019C42.9367 45.8519 42.9547 45.9192 42.9727 45.9739C42.986 46.0326 43.004 46.0866 43.022 46.1406C43.04 46.1952 43.058 46.2579 43.076 46.3126C43.0947 46.3712 43.1127 46.4252 43.1307 46.4792C43.1487 46.5332 43.1714 46.5919 43.1894 46.6466C43.2074 46.7006 43.23 46.7592 43.248 46.8132C43.2707 46.8679 43.2887 46.9219 43.3114 46.9806L43.374 47.1432C43.3967 47.1972 43.4194 47.2512 43.442 47.3052C43.4647 47.3599 43.4874 47.4139 43.51 47.4679C43.532 47.5226 43.5594 47.5766 43.582 47.6306L43.654 47.7932L43.7267 47.9512C43.7534 48.0052 43.7807 48.0592 43.808 48.1092C43.8347 48.1632 43.8574 48.2172 43.8847 48.2672C43.9114 48.3166 43.9387 48.3752 43.966 48.4252L44.0467 48.5786C44.0787 48.6326 44.1054 48.6826 44.1374 48.7366L44.2187 48.8859L44.3134 49.0439L44.3994 49.1879C44.4307 49.2426 44.462 49.2919 44.4987 49.3459C44.53 49.4006 44.5574 49.4412 44.5887 49.4859L44.6927 49.6439L44.7873 49.7839C44.8187 49.8339 44.8554 49.8879 44.8913 49.9379C44.9274 49.9872 44.9547 50.0279 44.9907 50.0732C45.0174 50.1179 45.0627 50.1726 45.1033 50.2219C45.1487 50.2719 45.1714 50.3126 45.2073 50.3572C45.2387 50.3979 45.2794 50.4566 45.32 50.5066C45.3607 50.5559 45.388 50.5879 45.424 50.6326L45.5367 50.7819C45.5727 50.8226 45.6047 50.8632 45.6407 50.8992C45.7267 50.9986 45.812 51.0979 45.898 51.1926L46.006 51.3099C46.0427 51.3506 46.0874 51.3959 46.1194 51.4366C46.1553 51.4819 46.2047 51.5266 46.2453 51.5719L46.3627 51.6846L46.494 51.8199L46.616 51.9379C46.6607 51.9739 46.6973 52.0146 46.738 52.0506L46.5434 53.0259ZM28.8687 23.1519H42.11C44.5434 23.2246 46.8374 24.2899 48.4713 26.0999H22.5074C24.1374 24.2899 26.4354 23.2246 28.8687 23.1519ZM28.458 19.0666C28.458 18.4252 28.9767 17.9059 29.618 17.9059H41.3654C42.006 17.9059 42.5254 18.4252 42.5254 19.0666V20.6012C42.5254 21.2426 42.006 21.7612 41.3654 21.7612H29.618C28.9767 21.7612 28.458 21.2426 28.458 20.6012V19.0666ZM33.9474 10.3572H37.0354V16.5152H33.9474V10.3572ZM31.5687 8.4339C31.5687 8.14056 31.808 7.90123 32.1014 7.90123H49.0674C49.3607 7.90123 49.6 8.14056 49.6 8.4339C49.6 8.7279 49.3607 8.96723 49.0674 8.96723H32.1014C31.808 8.96256 31.5687 8.7279 31.5687 8.4339ZM46.462 11.7299V10.3572H48.5254V11.7299H46.462ZM65.7353 34.6192L67.4013 34.0279V36.5652C67.3967 38.5019 65.826 40.0732 63.8887 40.0772H44.6607L44.67 40.0186L44.6834 39.9286C44.6927 39.8746 44.7014 39.8246 44.7107 39.7752C44.7154 39.7432 44.7194 39.7119 44.724 39.6846C44.738 39.6306 44.7467 39.5672 44.7647 39.5179C44.7694 39.4952 44.774 39.4726 44.778 39.4452C44.7967 39.3686 44.8187 39.2919 44.846 39.2152L44.8554 39.1792C44.8734 39.1159 44.896 39.0526 44.918 38.9852C44.9274 38.9626 44.9367 38.9352 44.9454 38.9086C44.968 38.8586 44.986 38.8092 45.004 38.7592L45.04 38.6732C45.0627 38.6286 45.0807 38.5786 45.1033 38.5332L45.144 38.4526C45.1667 38.4026 45.1894 38.3532 45.216 38.3032C45.23 38.2806 45.2387 38.2579 45.2527 38.2352C45.2934 38.1679 45.3293 38.0959 45.3654 38.0279C45.37 38.0186 45.374 38.0146 45.3787 38.0052C45.4193 37.9419 45.4554 37.8832 45.496 37.8199L45.5414 37.7526C45.5727 37.7072 45.6047 37.6619 45.636 37.6219L45.6947 37.5446C45.722 37.5039 45.7534 37.4632 45.7894 37.4232L45.848 37.3506C45.88 37.3099 45.9207 37.2652 45.9567 37.2246C45.9747 37.2059 45.9927 37.1839 46.0107 37.1659C46.0653 37.1066 46.124 37.0439 46.178 36.9852C46.3673 36.7999 46.566 36.6286 46.778 36.4706C47.69 35.7886 48.8053 35.4186 49.9433 35.4186L51.1894 35.4952L57.0854 35.8519C60.0247 36.0279 62.968 35.6126 65.7353 34.6192ZM68.9047 40.0772H67.302C68.2547 39.1566 68.792 37.8879 68.7873 36.5652V33.0439C68.792 32.6599 68.4807 32.3486 68.0967 32.3486C68.02 32.3486 67.9387 32.3619 67.862 32.3892L65.2747 33.3146C62.6747 34.2399 59.916 34.6326 57.1667 34.4612L52.0694 34.1546C52.602 31.1879 51.848 28.1272 49.984 25.7526C48.3993 23.7119 46.0967 22.3346 43.546 21.9059C43.7807 21.5086 43.9067 21.0619 43.9067 20.6059V19.0666C43.9067 17.6579 42.7647 16.5152 41.356 16.5152H38.426V10.3572H45.076V12.4252C45.076 12.8092 45.3834 13.1206 45.7674 13.1206H49.216C49.6 13.1206 49.9114 12.8092 49.9114 12.4252V10.1546C50.864 9.68923 51.2567 8.5379 50.7873 7.58523C50.4667 6.92656 49.7987 6.51123 49.0674 6.51123H32.1014C31.04 6.51123 30.178 7.36856 30.178 8.4339C30.178 9.49523 31.04 10.3572 32.1014 10.3572H32.5574V16.5152H29.618C28.2094 16.5152 27.0674 17.6579 27.0674 19.0666V20.6012C27.0674 21.0572 27.1894 21.5086 27.424 21.9012C24.8734 22.3346 22.5754 23.7072 20.986 25.7526C20.8234 25.9646 20.67 26.1812 20.5254 26.4026V26.4119C18.9274 28.7999 18.3767 31.7392 18.9954 34.5472L23.0807 53.3239C23.388 54.7006 24.6114 55.6846 26.02 55.6939H44.9587C46.372 55.6846 47.5954 54.7006 47.9027 53.3239L47.9613 53.0526C54.0107 57.4999 62.5167 56.1952 66.9633 50.1452C68.6747 47.8159 69.6 44.9986 69.6 42.1046V40.7726C69.6 40.3892 69.2887 40.0772 68.9047 40.0772Z" fill="#A5836A"/>
<path d="M39.0218 45.22C38.2632 46.4387 36.9272 47.1747 35.4912 47.1613C33.1531 47.166 31.2611 45.274 31.2611 42.9353C31.2565 42.308 31.3965 41.6846 31.6678 41.1206L35.4105 33.2426L39.2298 40.6326C39.9565 42.1633 39.8752 43.8833 39.0218 45.22ZM40.4805 40.0006L35.9745 31.3053C35.7938 30.9673 35.3738 30.836 35.0352 31.012C34.8772 31.098 34.7558 31.238 34.7012 31.4093L34.6018 31.712L30.4171 40.52C29.0805 43.3146 30.2591 46.6647 33.0538 48.0007C35.6092 49.2247 38.6698 48.3533 40.2005 45.9647C41.3112 44.2173 41.4192 41.9966 40.4985 40.0233L40.4805 40.0006Z" fill="#A5836A"/>
</svg>
