<svg width="76" height="64" viewBox="0 0 76 64" fill="none" xmlns="http://www.w3.org/2000/svg">
<circle cx="23.5" cy="23.5" r="23.5" fill="#F4EDE6"/>
<path d="M55.422 50.8467C55.422 50.9014 55.4173 50.956 55.4067 51.0094C55.396 51.0634 55.3807 51.1154 55.36 51.166C55.3393 51.2167 55.3147 51.2647 55.2847 51.31C55.2547 51.3554 55.2207 51.398 55.1827 51.4367C55.1453 51.4754 55.104 51.51 55.0593 51.54C55.0147 51.5707 54.9673 51.596 54.918 51.6174C54.8687 51.638 54.8174 51.654 54.7647 51.6647C54.712 51.6754 54.6587 51.6807 54.6054 51.6807C54.5514 51.6807 54.4987 51.6754 54.446 51.6647C54.3934 51.654 54.342 51.638 54.2927 51.6174C54.2427 51.596 54.196 51.5707 54.1514 51.54C54.1067 51.51 54.0654 51.4754 54.0274 51.4367C53.9894 51.398 53.956 51.3554 53.926 51.31C53.896 51.2647 53.8707 51.2167 53.8507 51.166C53.83 51.1154 53.814 51.0634 53.804 51.0094C53.7934 50.956 53.788 50.9014 53.788 50.8467C53.788 50.792 53.7934 50.738 53.804 50.684C53.814 50.63 53.83 50.578 53.8507 50.5274C53.8707 50.4767 53.896 50.4287 53.926 50.3834C53.956 50.338 53.9894 50.2954 54.0274 50.2567C54.0654 50.218 54.1067 50.1834 54.1514 50.1534C54.196 50.1227 54.2427 50.0974 54.2927 50.076C54.342 50.0554 54.3934 50.0394 54.446 50.0287C54.4987 50.018 54.5514 50.0127 54.6054 50.0127C54.6587 50.0127 54.712 50.018 54.7647 50.0287C54.8174 50.0394 54.8687 50.0554 54.918 50.076C54.9673 50.0974 55.0147 50.1227 55.0593 50.1534C55.104 50.1834 55.1453 50.218 55.1827 50.2567C55.2207 50.2954 55.2547 50.338 55.2847 50.3834C55.3147 50.4287 55.3393 50.4767 55.36 50.5274C55.3807 50.578 55.396 50.63 55.4067 50.684C55.4173 50.738 55.422 50.792 55.422 50.8467Z" fill="#A5836A"/>
<path d="M69.024 29.81L61.9347 23.5347V12.4773C61.9347 12.0407 61.5807 11.6867 61.144 11.6867C60.7073 11.6867 60.3527 12.0407 60.3527 12.4773V22.1347L55.6007 17.928V13.2687H56.444C56.8807 13.2687 57.2353 12.9147 57.2353 12.4773C57.2353 12.0407 56.8807 11.6867 56.444 11.6867H54.8093C54.3727 11.6867 54.0187 12.0407 54.0187 12.4773V16.528L45.2613 8.77601C44.6187 8.20668 43.612 8.20868 42.9707 8.78068L18.9333 30.2373C18.608 30.5287 18.5793 31.0287 18.87 31.3547C19.0267 31.5293 19.2433 31.6187 19.4607 31.6187C19.648 31.6187 19.8367 31.552 19.9873 31.418L24.3907 27.4873V51.264C24.3907 51.7007 24.7447 52.0547 25.1813 52.0547C25.618 52.0547 25.9727 51.7007 25.9727 51.264V26.0753L44.0247 9.96068C44.0667 9.92268 44.17 9.92268 44.2127 9.96068L62 25.7047C61.994 25.744 61.988 25.7833 61.988 25.8233V51.264C61.988 51.7007 62.342 52.0547 62.7787 52.0547C63.2153 52.0547 63.57 51.7007 63.57 51.264V27.0947L67.976 30.9947C68.3027 31.2847 68.8027 31.254 69.0927 30.926C69.382 30.5993 69.3513 30.0993 69.024 29.81Z" fill="#A5836A"/>
<path d="M59.5094 12.4773C59.5094 12.532 59.504 12.5866 59.4934 12.64C59.4834 12.694 59.4674 12.746 59.4467 12.7966C59.4267 12.8473 59.4014 12.8953 59.3714 12.9406C59.3414 12.9866 59.308 13.0286 59.27 13.0673C59.232 13.106 59.1907 13.1406 59.146 13.1706C59.1014 13.2013 59.054 13.2273 59.0047 13.248C58.9547 13.2686 58.904 13.2846 58.8514 13.2953C58.7987 13.306 58.7454 13.3113 58.692 13.3113C58.638 13.3113 58.5847 13.306 58.532 13.2953C58.4794 13.2846 58.4287 13.2686 58.3787 13.248C58.3294 13.2273 58.282 13.2013 58.2374 13.1706C58.1927 13.1406 58.1514 13.106 58.114 13.0673C58.076 13.0286 58.042 12.9866 58.012 12.9406C57.982 12.8953 57.9574 12.8473 57.9367 12.7966C57.916 12.746 57.9007 12.694 57.89 12.64C57.8794 12.5866 57.874 12.532 57.874 12.4773C57.874 12.4226 57.8794 12.3686 57.89 12.3146C57.9007 12.2613 57.916 12.2086 57.9367 12.158C57.9574 12.1073 57.982 12.0593 58.012 12.014C58.042 11.9686 58.076 11.9266 58.114 11.8873C58.1514 11.8486 58.1927 11.8146 58.2374 11.784C58.282 11.7533 58.3294 11.728 58.3787 11.7066C58.4287 11.686 58.4794 11.67 58.532 11.6593C58.5847 11.6486 58.638 11.6433 58.692 11.6433C58.7454 11.6433 58.7987 11.6486 58.8514 11.6593C58.904 11.67 58.9547 11.686 59.0047 11.7066C59.054 11.728 59.1014 11.7533 59.146 11.784C59.1907 11.8146 59.232 11.8486 59.27 11.8873C59.308 11.9266 59.3414 11.9686 59.3714 12.014C59.4014 12.0593 59.4267 12.1073 59.4467 12.158C59.4674 12.2086 59.4834 12.2613 59.4934 12.3146C59.504 12.3686 59.5094 12.4226 59.5094 12.4773Z" fill="#A5836A"/>
<path d="M45.0048 20.0273C35.4408 20.0273 27.6602 28.0533 27.6602 37.918C27.6602 47.7827 35.4408 55.808 45.0048 55.808C45.2588 55.808 45.5115 55.8013 45.7628 55.79C45.9808 55.7807 46.1855 55.682 46.3275 55.5167C46.4701 55.3513 46.5381 55.134 46.5148 54.9173C46.4195 54.0153 46.1741 53.1247 45.8048 52.3427C45.4141 51.5167 44.7435 50.7113 43.8115 49.9487C43.6575 49.8227 43.4615 49.7567 43.2621 49.7713C42.4541 49.82 41.6262 49.7913 40.8155 49.6867C38.7228 49.4147 38.0588 48.9847 37.8708 48.6713C37.7242 48.4273 37.8735 48.144 37.9975 47.9267C38.1982 47.5753 38.4728 47.094 38.3302 46.5407C38.3155 46.484 38.1908 46.0307 37.8555 45.7387C37.8588 45.7333 37.8622 45.728 37.8655 45.724C38.0462 45.5153 38.1335 45.2533 38.1108 44.9807C38.0702 44.482 37.6735 44.15 37.5528 44.06C37.5495 44.058 37.5462 44.0553 37.5435 44.0527C37.5562 44.036 37.5695 44.02 37.5828 44.006C38.0748 43.6193 38.4428 42.854 38.2308 42.1813C38.0942 41.7493 37.8302 41.406 37.5208 41.0833C37.4068 40.9653 37.3088 40.8633 37.2215 40.738C37.2422 40.7287 37.2662 40.7187 37.2948 40.708C37.8102 40.522 38.2948 40.2893 38.7348 40.018C40.8648 38.702 40.9948 36.5353 41.1088 34.624C41.1455 34.0107 41.1808 33.426 41.2728 32.8713C41.8342 36.328 43.6821 39.57 46.6895 42.3393C47.1681 42.7807 47.6948 43.182 48.2035 43.57C49.2288 44.352 50.1968 45.0907 50.7728 46.1047L50.8015 46.154C50.8608 46.2553 51.0008 46.49 51.1001 46.7647C51.2128 47.0793 51.5368 47.2887 51.8708 47.2887C52.2628 47.2887 52.5961 47.0013 52.6535 46.6133C52.7261 46.118 52.7688 45.57 52.5875 44.914C52.0595 42.9893 50.5248 41.4813 49.2728 40.2493C45.8735 36.9067 45.4435 33.344 45.4501 31.716C46.4781 33.0187 48.0815 33.8807 49.4695 34.6233C49.8215 34.8113 50.1621 34.9933 50.4768 35.1747C53.2775 36.788 56.1728 38.456 56.0815 41.9893C56.0375 43.6227 55.1788 45.292 54.6708 46.1413C54.4468 46.5167 54.5688 47.002 54.9435 47.2267C55.0708 47.3027 55.2108 47.3387 55.3488 47.3387C55.6181 47.3387 55.8801 47.2013 56.0288 46.9533C56.6161 45.9707 57.6095 44.0253 57.6621 42.0307C57.7795 37.556 54.1681 35.4753 51.2661 33.804C50.9381 33.6153 50.5828 33.4247 50.2155 33.228C48.5628 32.344 46.2908 30.974 45.9821 29.6093C45.8941 29.2207 46.0048 28.9193 46.2128 28.596C46.6255 27.958 47.1368 27.51 47.5148 27.2367C48.5421 26.5893 49.5501 26.288 50.6848 26.288C51.7741 26.288 52.8628 26.5767 53.8235 26.8313C55.1868 27.1933 57.0141 28.406 58.9668 30.2473C59.2495 30.5133 59.6821 30.5353 59.9901 30.3C60.2981 30.0647 60.3895 29.6407 60.2075 29.2993C57.1528 23.58 51.3275 20.0273 45.0048 20.0273ZM54.2288 25.3027C53.1748 25.0227 51.9801 24.706 50.6848 24.706C49.2495 24.706 47.9288 25.1007 46.6481 25.9127C46.6355 25.9207 46.6228 25.9293 46.6108 25.938C45.6775 26.6073 44.0948 28.1007 43.9388 30.604C43.8541 31.1933 43.2421 36.538 48.1835 41.3967C48.4195 41.6287 48.6621 41.8673 48.9021 42.1133C48.4961 41.802 48.1115 41.4993 47.7608 41.176C44.4821 38.156 42.7715 34.706 42.6761 30.924C42.6695 30.64 42.6835 29.9807 42.7841 29.5147C42.8581 29.1713 42.6961 28.82 42.3875 28.6527C42.0781 28.486 41.6961 28.5427 41.4488 28.7913C40.9981 29.246 40.5595 30.0933 40.4355 30.3427C40.1468 30.924 39.9282 31.5587 39.7848 32.228C39.6222 32.9907 39.5755 33.7733 39.5302 34.5293C39.4255 36.278 39.3348 37.788 37.9042 38.672C37.5562 38.886 37.1702 39.0713 36.7568 39.2207C36.0328 39.4827 35.7568 39.9253 35.6528 40.2507C35.5528 40.5633 35.5188 41.0587 35.9248 41.6433C36.0815 41.8687 36.2468 42.0413 36.3795 42.18C36.5575 42.3647 36.6482 42.4627 36.7042 42.6067C36.6868 42.6587 36.6402 42.7347 36.6082 42.76C36.5822 42.7787 36.5568 42.7987 36.5335 42.8207C36.4128 42.93 35.8175 43.5153 35.9028 44.28C35.9262 44.4893 36.0215 44.846 36.3762 45.16C36.2695 45.3993 36.1862 45.7113 36.2422 46.0507C36.2968 46.3827 36.4775 46.6773 36.7582 46.8933C36.7222 46.9707 36.6635 47.0727 36.6235 47.142C36.5422 47.2853 36.4575 47.434 36.3968 47.5953C36.0728 48.4573 36.2822 49.0993 36.5148 49.486C37.2295 50.6753 39.0802 51.056 40.6122 51.2553C41.4155 51.3593 42.2348 51.3973 43.0381 51.366C43.6601 51.912 44.1195 52.4793 44.3748 53.0187C44.5515 53.3933 44.6928 53.8007 44.7948 54.2247C36.1995 54.108 29.2422 46.838 29.2422 37.918C29.2422 28.9253 36.3135 21.6093 45.0048 21.6093C48.9615 21.6093 52.7061 23.1467 55.5608 25.8073C55.1148 25.5927 54.6681 25.4187 54.2288 25.3027Z" fill="#A5836A"/>
</svg>
